# xmcd
#
# Track frame offsets:
#	150
#	12092
#	25387
#	38255
#	52672
#	69223
#	87008
#	98232
#	116945
#	129672
#	144650
#	154733
#	166145
#	176434
#	189830
#	202888
#	216197
#	229409
#	239450
#	254851
#	272924
#	285074
#
# Disc length: 4009 seconds
#
# Revision: 1
# Processed by: cddbd v1.5.2PL0 Copyright (c) Steve Scherf et al.
# Submitted via: audiograbber 1.83.01
#
DISCID=270fa716
DTITLE=Various Artist - Taking Country Music Into The New Millenium
DYEAR=2000
DGENRE=Country
TTITLE0=Bobby Long - Woman with a cold cold heart
TTITLE1=Frank Mabry - Bigger and better in  Texas
TTITLE2=Tony Martin - Highway of love
TTITLE3=Donna Darlene - I don't know you from Adam
TTITLE4=Jimmy Cole - Don't take her to heart
TTITLE5=Rooster Quantrell - Night life
TTITLE6=Billy Grammer - Brown Ferry Blues
TTITLE7=Bill Fronefield - Daddy's tears
TTITLE8=Crocket Frizzell - I'll take the chance
TTITLE9=Brant Miller - It's the heart
TTITLE10=Bob Norman - Jeannie
TTITLE11=Johnny Vincent - Kentucky bound
TTITLE12=Jerry Arnold - He's not talking these days
TTITLE13=Michael Apidgian - Meet me on the other side
TTITLE14=Juli Maners - A special love
TTITLE15=James Bryan - Special
TTITLE16=Caldwell - A woman can lie with her eyes
TTITLE17=William Earl - Crazy love
TTITLE18=Danny Grae - Too many beds
TTITLE19=Charlie - Crying in my beer
TTITLE20=Charlie - Multilane myrtle
TTITLE21=The Whites - Master of the sea
EXTD=
EXTT0=
EXTT1=
EXTT2=
EXTT3=
EXTT4=
EXTT5=
EXTT6=
EXTT7=
EXTT8=
EXTT9=
EXTT10=
EXTT11=
EXTT12=
EXTT13=
EXTT14=
EXTT15=
EXTT16=
EXTT17=
EXTT18=
EXTT19=
EXTT20=
EXTT21=
PLAYORDER=
